<svg width="26" height="26" viewBox="0 0 26 26" fill="none" xmlns="http://www.w3.org/2000/svg">
<g clip-path="url(#clip0_49_701)">
<path d="M8.40125 8.125H1.79563C1.23502 9.41198 0.902358 10.7866 0.8125 12.1875H8.125C8.125 10.8062 8.23875 9.43313 8.40125 8.125Z" fill="#1736B7"/>
<path d="M16.25 12.1875C16.2261 10.829 16.1285 9.47287 15.9575 8.125H10.0425C9.87153 9.47287 9.77389 10.829 9.75 12.1875H16.25Z" fill="#1736B7"/>
<path d="M15.6977 6.5C15.0315 2.91688 13.8859 0.8125 13.0002 0.8125C12.1146 0.8125 10.969 2.91688 10.3027 6.5H15.6977Z" fill="#1736B7"/>
<path d="M10.3027 19.5C10.969 23.0831 12.1146 25.1875 13.0002 25.1875C13.8859 25.1875 15.0315 23.0831 15.6977 19.5H10.3027Z" fill="#1736B7"/>
<path d="M17.5986 17.875H24.2043C24.7649 16.588 25.0975 15.2134 25.1874 13.8125H17.8749C17.8749 15.1938 17.7611 16.5669 17.5986 17.875Z" fill="#1736B7"/>
<path d="M9.75 13.8125C9.77389 15.171 9.87153 16.5271 10.0425 17.875H15.9575C16.1285 16.5271 16.2261 15.171 16.25 13.8125H9.75Z" fill="#1736B7"/>
<path d="M8.64473 19.5H2.67285C3.53992 20.8648 4.66822 22.0448 5.99288 22.9721C7.31754 23.8993 8.81243 24.5556 10.3916 24.9031C9.50478 23.2152 8.91393 21.3876 8.64473 19.5Z" fill="#1736B7"/>
<path d="M8.64473 6.49981C8.91393 4.61216 9.50478 2.78464 10.3916 1.09668C8.81243 1.44422 7.31754 2.10048 5.99288 3.02775C4.66822 3.95501 3.53992 5.13498 2.67285 6.49981H8.64473Z" fill="#1736B7"/>
<path d="M17.3553 19.5C17.0861 21.3876 16.4952 23.2152 15.6084 24.9031C17.1876 24.5556 18.6825 23.8993 20.0071 22.9721C21.3318 22.0448 22.4601 20.8648 23.3271 19.5H17.3553Z" fill="#1736B7"/>
<path d="M17.3553 6.49981H23.3271C22.4601 5.13498 21.3318 3.95501 20.0071 3.02775C18.6825 2.10048 17.1876 1.44422 15.6084 1.09668C16.4952 2.78464 17.0861 4.61216 17.3553 6.49981Z" fill="#1736B7"/>
<path d="M8.125 13.8125H0.8125C0.902358 15.2134 1.23502 16.588 1.79563 17.875H8.40125C8.23875 16.5669 8.125 15.1938 8.125 13.8125Z" fill="#1736B7"/>
<path d="M17.5986 8.125C17.7611 9.43313 17.8505 10.8062 17.883 12.1875H25.1955C25.1056 10.7866 24.773 9.41198 24.2124 8.125H17.5986Z" fill="#1736B7"/>
</g>
<defs>
<clipPath id="clip0_49_701">
<rect width="26" height="26" fill="white"/>
</clipPath>
</defs>
</svg>
