<svg width="285" height="47" viewBox="0 0 285 47" fill="none" xmlns="http://www.w3.org/2000/svg">
<path fill-rule="evenodd" clip-rule="evenodd" d="M48.5859 46.0971C47.7185 46.1979 46.8208 46.2484 45.9232 46.2484C40.7893 46.2181 37.2592 44.7455 34.4855 43.2326C36.7145 43.7571 39.8614 44.443 39.7908 43.8075C39.2663 41.9315 32.9121 39.6117 29.4626 39.41C28.9281 38.8755 28.4237 38.3207 27.9396 37.7357C35.1209 38.7847 43.2907 41.0843 48.5758 46.087M59.1763 42.103C56.4329 44.0093 53.2659 45.3406 49.8467 45.9256C49.6449 44.9271 49.0599 43.8882 47.6378 42.8191L48.7876 42.3955C45.7214 39.7227 39.6193 34.1854 24.7423 31.7749C24.6213 31.7547 24.4801 31.7446 24.359 31.7244L23.7539 30.0501C23.8547 30.0501 23.9758 30.0501 24.0766 30.0501C41.8786 31.1294 48.3136 35.4664 59.1763 42.1131V42.103ZM65.9845 34.7704C64.4614 37.3625 62.4442 39.6218 60.074 41.4474C59.4184 40.2472 58.0769 38.5124 56.2211 37.4432L57.028 36.6464C49.8164 30.4435 37.4912 24.5028 22.7251 23.9985C22.7049 23.4438 22.7049 22.879 22.7251 22.3242C41.7273 22.6772 54.5972 27.2059 65.9542 34.7603C65.9542 34.7603 65.9744 34.7704 65.9845 34.7805V34.7704ZM69.0809 24.9567C68.8086 28.3557 67.7999 31.5429 66.2063 34.3771L66.1761 34.4275C66.1761 34.4275 66.1458 34.3166 66.1458 34.3065C65.3087 32.027 62.8779 30.1914 61.5062 29.5358L62.0811 27.8615C56.7859 22.768 43.2907 15.5464 23.7539 16.2827L24.349 14.6084C44.2892 13.973 58.0265 17.9267 69.0809 24.9668V24.9567ZM67.0435 13.509C68.395 16.4441 69.1616 19.7018 69.1616 23.1311C69.1616 23.6354 69.1414 24.1397 69.1111 24.6339C68.6371 22.5562 66.0248 19.7422 63.0494 18.7739L62.8578 17.4123C57.9761 13.5494 44.4808 7.03376 27.9295 8.56684C28.4036 7.98185 28.9079 7.42711 29.4424 6.89255C45.2575 5.23844 60.5985 8.69796 67.0536 13.5191L67.0435 13.509ZM45.9433 0.00377148C54.8393 0.00377148 62.5854 5.03672 66.4888 12.3895C64.6531 10.1403 62.2022 7.99193 58.3795 6.99341C55.3033 3.14054 42.8267 0.457644 34.4956 3.0195C37.1482 1.47634 41.3844 -0.0870031 45.9433 0.00377148Z" fill="white"/>
<path fill-rule="evenodd" clip-rule="evenodd" d="M29.1416 38.5682C30.5976 39.9475 32.2617 41.1484 34.0645 42.1242C30.7363 43.9069 26.893 44.9296 22.812 44.9296C16.5023 44.9296 10.7671 42.4902 6.63659 38.5682H29.1515H29.1416ZM24.1294 31.3999C25.0011 33.4453 26.1898 35.3312 27.6558 37.0107H5.14088C3.68479 35.3312 2.48624 33.4453 1.61457 31.3999H24.1294ZM22.5149 24.2222C22.5941 26.1738 22.9408 28.0503 23.5351 29.8424H1.03016C0.435836 28.0503 0.0792428 26.1644 0 24.2222H22.5149ZM23.5252 17.0444C22.9309 18.8271 22.5842 20.7131 22.5149 22.6646H0C0.0693375 20.7131 0.42593 18.8365 1.01035 17.0444H23.5153H23.5252ZM27.6161 9.86673C26.16 11.5462 24.9714 13.4415 24.1096 15.4775H1.59476C2.45653 13.4321 3.64517 11.5462 5.10126 9.86673H27.6062H27.6161ZM22.812 1.90088C26.9029 1.90088 30.7462 2.92359 34.0645 4.70629C32.232 5.69146 30.5679 6.90182 29.092 8.29983H6.58706C10.7374 4.35913 16.4825 1.90088 22.812 1.90088Z" fill="white"/>
<path fill-rule="evenodd" clip-rule="evenodd" d="M274.93 30.1428L271.294 18.3712V30.1428H267.477V14.7353H273.132L275.884 23.9256L276.165 25.7636H276.205L276.527 23.9657L279.249 14.7454H284.904V30.1528H281.087V18.3813L277.481 30.1528H274.94L274.93 30.1428ZM256.991 30.5646C255.997 30.5646 254.902 30.3838 253.737 30.0725C252.572 29.7209 251.477 28.9777 250.523 27.7423C249.528 26.537 249.036 24.7693 249.036 22.4391C249.036 20.1089 249.528 18.3009 250.523 17.1057C251.477 15.9004 252.572 15.127 253.737 14.8056C254.902 14.4842 255.997 14.3135 256.991 14.3135C257.986 14.3135 259.04 14.4943 260.175 14.8056C261.34 15.127 262.405 15.9004 263.389 17.1057C264.384 18.311 264.876 20.1089 264.876 22.4391C264.876 24.7693 264.384 26.537 263.389 27.7423C262.395 28.9777 261.34 29.7209 260.175 30.0725C259.04 30.3939 257.945 30.5646 256.991 30.5646ZM253.385 22.4391C253.385 23.574 253.566 24.4579 253.847 25.161C254.169 25.8641 254.55 26.3663 255.083 26.6776C255.645 26.9588 256.288 27.0995 256.991 27.0995C257.875 27.0995 258.618 26.8885 259.151 26.4265C259.683 25.9645 260.035 25.402 260.215 24.699C260.426 23.9959 260.497 23.2526 260.497 22.4391C260.497 21.6255 260.426 20.9224 260.215 20.2093C260.035 19.5363 259.683 18.9739 259.151 18.5119C258.618 18.0498 257.875 17.8088 256.991 17.8088C256.288 17.8088 255.645 17.9896 255.083 18.2708C254.55 18.552 254.169 19.0442 253.847 19.7573C253.566 20.4303 253.385 21.3443 253.385 22.4391ZM238.078 20.7416H238.219L243.693 14.7353H248.504L242.357 21.0229L248.996 30.1428H243.944L239.635 23.8151L238.078 25.3719V30.1428H234.01V14.7353H238.078V20.7416ZM222.179 20.7718H229.531V23.8452H222.179V26.6676H230.837V30.1327H218.111V14.7253H230.626V18.2206H222.179V20.7617V20.7718ZM198.284 30.1428V26.6776C198.746 26.7479 199.097 26.7881 199.379 26.7881C200.011 26.7881 200.514 26.6776 200.865 26.4667C201.217 26.2859 201.468 25.7937 201.638 25.0505C201.819 24.3072 201.92 23.2124 201.92 21.6958V14.7353H213.832V30.1428H209.734V18.2306H205.736V23.4635C205.736 24.9099 205.596 26.1453 205.274 27.0995C204.993 28.0938 204.431 28.8672 203.617 29.3995C202.804 29.962 201.638 30.2432 200.152 30.2834C199.198 30.2834 198.565 30.2432 198.284 30.1428ZM188.069 20.7718H195.451V23.8452H188.069V26.6676H196.727V30.1327H184.001V14.7253H196.516V18.2206H188.069V20.7617V20.7718ZM172.451 18.2306H167.931V14.7353H181.038V18.2306H176.518V30.1428H172.451V18.2306ZM155.988 20.7416H156.129L161.603 14.7353H166.414L160.267 21.0229L165.57 28.3047H167.127V32.935H164.054V30.1428H161.864L157.555 23.8151L155.998 25.3719V30.1428H151.931V14.7353H155.998V20.7416H155.988ZM138.913 27.461L138.07 30.1428H133.831L139.596 14.7353H143.624L149.349 30.1428H145.111L144.267 27.461H138.934H138.913ZM139.797 24.699H143.403L141.816 19.8578L141.676 18.3712H141.495L141.314 19.8578L139.797 24.699ZM117.319 24.699H121.316C121.316 25.9042 121.668 26.6475 122.411 26.999C123.154 27.3506 123.898 27.5314 124.671 27.5314C125.444 27.5314 126.087 27.4209 126.69 27.1396C127.292 26.8885 127.614 26.3261 127.614 25.5125C127.614 24.7693 127.403 24.2369 126.941 23.9959C126.449 23.7448 125.876 23.6443 125.244 23.6443H123.014V21.0329H124.781C125.314 21.0329 125.806 20.9224 126.268 20.7115C126.73 20.4604 126.971 20.0084 126.971 19.2953C126.971 18.4817 126.69 17.9494 126.087 17.7083C125.485 17.4572 124.922 17.3568 124.319 17.3568C123.546 17.3568 122.903 17.5376 122.371 17.8891C121.879 18.2808 121.628 18.9538 121.598 20.0084H117.64C117.64 18.773 117.891 17.7083 118.383 16.8948C118.876 16.0511 119.619 15.4484 120.613 15.0266C121.608 14.6349 122.803 14.424 124.249 14.424H124.781C126.439 14.424 127.755 14.6349 128.739 15.0567C129.693 15.4786 130.366 16.0109 130.758 16.6437C131.109 17.2765 131.29 17.9494 131.29 18.6625C131.29 19.7272 131.009 20.5006 130.476 20.9927C129.914 21.5251 129.311 21.8364 128.608 21.9871V22.0574C129.492 22.198 130.266 22.5495 130.979 23.1924C131.652 23.8251 132.003 24.709 132.003 25.9143V25.9846C132.003 27.2602 131.611 28.2143 130.838 28.8873C130.065 29.5904 129.181 30.0223 128.116 30.2332C127.092 30.4441 125.997 30.5546 124.902 30.5546C123.556 30.5546 122.361 30.414 121.266 30.1327C120.201 29.8515 119.287 29.2891 118.584 28.4052C117.841 27.5615 117.449 26.316 117.349 24.7291L117.319 24.699ZM105.276 27.461L104.432 30.1428H100.194L105.959 14.7353H109.987L115.712 30.1428H111.473L110.629 27.461H105.296H105.276ZM106.16 24.699H109.766L108.179 19.8578L108.038 18.3712H107.857L107.676 19.8578L106.16 24.699ZM88.6933 20.7416H88.8741L94.3179 14.7353H99.129L92.9821 21.0229L98.2853 28.3047H99.8421V32.935H96.7687V30.1428H94.5791L90.2702 23.8151L88.7133 25.3719V30.1428H84.6455V14.7353H88.7133V20.7416H88.6933Z" fill="white"/>
</svg>
